<?xml version="1.0" encoding="UTF-8"?>
<!DOCTYPE svg PUBLIC "-//W3C//DTD SVG 1.1//EN" "http://www.w3.org/Graphics/SVG/1.1/DTD/svg11.dtd">
<!-- Creator: CorelDRAW 2019 (64-Bit) -->
<svg xmlns="http://www.w3.org/2000/svg" xml:space="preserve" width="105.833mm" height="105.833mm" version="1.1" style="shape-rendering:geometricPrecision; text-rendering:geometricPrecision; image-rendering:optimizeQuality; fill-rule:evenodd; clip-rule:evenodd"
viewBox="0 0 608.66 608.66"
 xmlns:xlink="http://www.w3.org/1999/xlink">
 <defs>
  <style type="text/css">
   <![CDATA[
    .fil1 {fill:#323330}
    .fil2 {fill:#9D9141}
    .fil0 {fill:#EFDB4D}
   ]]>
  </style>
 </defs>
 <g id="Layer_x0020_1">
  <metadata id="CorelCorpID_0Corel-Layer"/>
  <g id="_2866969308544">
   <path class="fil0" d="M208.95 186.7c4.8,-2.47 7.62,-1.71 13.21,-1.65 11.3,0.11 33.02,-1.43 40.37,1.31 2.13,13.94 1.56,159.67 -1.2,161.15 1.25,31.97 -15.25,56.79 -34.44,68.05 -22.79,13.37 -58.99,12.52 -86.21,5.26l5.36 -43.23c76.9,18.88 63.97,-30.12 63.61,-123.47 -0.08,-20.66 1.26,-47.53 -0.7,-67.42zm229.37 50.39c-18.65,-6.02 -36.83,-14.13 -60.28,-9.67 -24,4.56 -30.54,26.36 -12.13,39.7 21.66,15.69 69.14,19.77 87.33,55.71 8.87,17.53 9.37,41.17 0.59,59.46 -30.55,63.68 -138.5,43.28 -155.15,28.56l10.29 -42.83c20.45,6.48 31.49,13.9 57.73,14.17 21.69,0.22 44.5,-8.88 37.63,-33.27 -6.73,-23.91 -63.1,-25.56 -87.86,-55.2 -28.85,-34.55 -15.21,-77.93 16.12,-96.55 34.28,-20.38 80.61,-18.02 117.58,-2.54l-11.86 42.45zm-438.32 55.07l0 3.24c0,32.97 0.19,51.51 9.12,85.03 9.37,35.21 25.04,70.38 46.3,99.78 5.42,7.49 10.25,13.68 15.87,20.65l18.08 19.96c4.05,4.02 5.94,4.85 9.91,8.35 23.02,20.34 47.49,39.54 76.36,51.46 52.3,21.6 74.12,28.03 137.83,28.03 22.58,0 45.78,-3.73 64.54,-8.5 25.44,-6.47 31.71,-9.91 55.03,-19.53 23.03,-9.51 47.57,-27.44 66.96,-42.6 4.2,-3.28 5.66,-5.57 9.4,-8.86 12.74,-11.25 7.16,-4.73 19.08,-18.96 3.1,-3.7 5.92,-5.63 8.91,-9.35 15.14,-18.79 34.11,-45.69 43.26,-67.82 21.6,-52.31 28.03,-74.11 28.03,-137.83 0,-22.58 -3.73,-45.78 -8.5,-64.54 -2.52,-9.93 -5.13,-19.19 -8.46,-28.06 -10.5,-27.98 -19.06,-46.11 -37.2,-72.36l-24.61 -30.17c-3.79,-4.07 -4.87,-6.46 -9.08,-10.7 -17.1,-17.21 -41.15,-35.13 -61.93,-47.62 -39.7,-23.88 -94.56,-41.74 -142.38,-41.74 -55.93,0 -94.82,5.71 -142.04,28.38 -16.68,8.01 -31.62,16.63 -46,27.03 -20.04,14.5 -41.55,33.05 -57.17,52.39 -17.9,22.15 -30.06,39.89 -42.9,66.65 -13.73,28.59 -28.38,76.31 -28.38,117.69z"/>
   <path class="fil1" d="M450.18 194.63c-36.98,-15.49 -83.31,-17.84 -117.58,2.54 -31.33,18.62 -44.98,62.01 -16.12,96.55 24.75,29.64 81.12,31.29 87.86,55.2 6.87,24.38 -15.95,33.49 -37.63,33.27 -26.24,-0.27 -37.28,-7.7 -57.73,-14.17l-10.29 42.83c16.65,14.73 124.6,35.13 155.15,-28.56 8.78,-18.3 8.28,-41.94 -0.59,-59.46 -18.19,-35.94 -65.67,-40.02 -87.33,-55.71 -18.41,-13.34 -11.87,-35.14 12.13,-39.7 23.45,-4.46 41.63,3.66 60.28,9.67l11.86 -42.45z"/>
   <path class="fil1" d="M261.33 347.5l0.01 -160.8 -52.39 0c1.96,19.89 0.62,46.76 0.7,67.42 0.36,93.35 13.29,142.34 -63.61,123.47l-5.36 43.23c27.22,7.26 63.42,8.11 86.21,-5.26 19.19,-11.26 35.69,-36.08 34.44,-68.05z"/>
   <path class="fil2" d="M261.33 347.5c2.77,-1.47 3.33,-147.2 1.2,-161.15 -7.35,-2.74 -29.06,-1.2 -40.37,-1.31 -5.6,-0.06 -8.41,-0.82 -13.21,1.65l52.39 0 -0.01 160.8z"/>
  </g>
 </g>
</svg>
